<svg id="Icons" xmlns="http://www.w3.org/2000/svg" viewBox="0 0 500 500"><defs><style>.cls-1{fill:#f5333f;}.cls-2{fill:#011e41;}</style></defs><path class="cls-1" d="M365.17,88.68a186.27,186.27,0,0,0-230.13,0l-9.89-12.57a202.26,202.26,0,0,1,249.92,0Z"/><path class="cls-2" d="M339,242.9a26.55,26.55,0,1,1,26.54-26.55A26.58,26.58,0,0,1,339,242.9Zm0-37.09a10.55,10.55,0,1,0,10.54,10.54A10.56,10.56,0,0,0,339,205.81Z"/><polygon class="cls-2" points="351.11 458.83 351.1 250.92 437.53 211.12 444.23 225.65 367.1 261.17 367.11 458.83 351.11 458.83"/><rect class="cls-2" x="310.97" y="250.69" width="16" height="208.42"/><path class="cls-2" d="M161,242.9a26.55,26.55,0,1,1,26.55-26.55A26.58,26.58,0,0,1,161,242.9Zm0-37.09a10.55,10.55,0,1,0,10.55,10.54A10.55,10.55,0,0,0,161,205.81Z"/><rect class="cls-2" x="92.01" y="192.2" width="16" height="90.03" transform="translate(-157.29 228.83) rotate(-65.27)"/><rect class="cls-2" x="173.03" y="250.69" width="16" height="83.56"/><path class="cls-2" d="M78.07,435.16l-16-.07L62.25,395a78.53,78.53,0,0,1,70.46-78l.17-55.79L55.77,225.65l6.7-14.53,86.44,39.81-.25,81.62h-8A62.51,62.51,0,0,0,78.25,395Z"/><path class="cls-2" d="M145.15,460.12A56.8,56.8,0,1,1,202,403.33,56.85,56.85,0,0,1,145.15,460.12Zm0-97.59a40.8,40.8,0,1,0,40.8,40.8A40.84,40.84,0,0,0,145.15,362.53Z"/><path class="cls-2" d="M250.11,164.64a32,32,0,1,1,32-32A32,32,0,0,1,250.11,164.64Zm0-48a16,16,0,1,0,16,16A16,16,0,0,0,250.11,116.64Z"/><polygon class="cls-2" points="268.08 458.11 268.08 179.38 377.93 116.34 385.89 130.22 284.08 188.64 284.08 458.11 268.08 458.11"/><polygon class="cls-2" points="232.14 458.11 216.14 458.11 216.14 188.65 114.07 130.22 122.02 116.33 232.14 179.37 232.14 458.11"/></svg>