<svg id="Icons" xmlns="http://www.w3.org/2000/svg" viewBox="0 0 500 500"><defs><style>.cls-1{fill:#f5333f;}.cls-2{fill:#011e41;}</style></defs><path class="cls-1" d="M365.07,129.87a186.28,186.28,0,0,0-230.14,0L125,117.3a202.26,202.26,0,0,1,249.92,0Z"/><polygon class="cls-2" points="165.24 425.92 123.16 425.92 123.16 309.64 139.16 309.64 139.16 409.92 149.24 409.92 149.24 309.64 165.24 309.64 165.24 425.92"/><path class="cls-2" d="M377,352.16H256.18A18.2,18.2,0,0,1,238,334.67V322.06H123V152.62H276.14a16,16,0,0,1,8.92,29.29l-.67.45-30.12,12.36H377ZM253.94,334.11a2.24,2.24,0,0,0,2.24,2.05H361V210.72H253.88ZM139,306.06h98.94l-.06-109.91h0a15.91,15.91,0,0,1,7-14.72l.67-.45,30.12-12.36H139Z"/><path class="cls-2" d="M212.29,298.53H167.5V265l-33.57,0V220.18l33.57,0V186.58h44.79v33.58l33.58,0V265H212.29Zm-28.79-16h12.79V249h33.58V236.17H196.29V202.58H183.5v33.57l-33.57,0V249H183.5Z"/><path class="cls-2" d="M325.76,330.36c-31.7,0-57.5-25.29-57.5-56.37s25.8-56.37,57.5-56.37A58.19,58.19,0,0,1,342,220c1.16.34,2.31.71,3.45,1.12l5.3,1.9v11.24l-5.27,2c-16.28,5.92-27.22,21.1-27.22,37.77a40.83,40.83,0,0,0,27.07,38.29l5.32,1.91,0,11.66-5.41,1.84C340,329.46,333.45,330.36,325.76,330.36Zm-6.33-96.27c-19.89,3-35.17,19.73-35.17,39.9,0,19.92,14.91,36.52,34.44,39.79A56.7,56.7,0,0,1,302.29,274,55.73,55.73,0,0,1,319.43,234.09Z"/></svg>