<svg id="Icons" xmlns="http://www.w3.org/2000/svg" viewBox="0 0 500 500"><defs><style>.cls-1{fill:#f5333f;}.cls-2{fill:#011e41;}</style></defs><path class="cls-1" d="M365.07,100.71a186.28,186.28,0,0,0-230.14,0L125,88.13a202.29,202.29,0,0,1,249.92,0Z"/><path class="cls-2" d="M250.13,154.25a32,32,0,1,1,32-32A32,32,0,0,1,250.13,154.25Zm0-48a16,16,0,1,0,16,16A16,16,0,0,0,250.13,106.25Z"/><polygon class="cls-2" points="268.1 447.08 268.1 165.62 282.75 165.62 303.47 226.07 345.29 200.84 369.21 200.84 369.21 216.84 349.74 216.84 294.76 250.01 284.1 218.91 284.1 447.08 268.1 447.08"/><polygon class="cls-2" points="232.46 447.08 216.46 447.08 216.46 219.79 206.31 250 150.84 216.84 131.35 216.84 131.35 200.84 155.26 200.84 197.47 226.07 217.77 165.62 232.46 165.62 232.46 447.08"/></svg>