<svg id="Icons" xmlns="http://www.w3.org/2000/svg" viewBox="0 0 500 500"><defs><style>.cls-1{fill:#f5333f;}.cls-2{fill:#011e41;}</style></defs><path class="cls-1" d="M365.07,100.71a186.28,186.28,0,0,0-230.14,0L125,88.13a202.29,202.29,0,0,1,249.92,0Z"/><path class="cls-2" d="M249.6,176a28.88,28.88,0,1,1,28.88-28.87A28.9,28.9,0,0,1,249.6,176Zm0-41.75a12.88,12.88,0,1,0,12.88,12.88A12.89,12.89,0,0,0,249.6,134.25Z"/><path class="cls-2" d="M130.45,187.31a28.88,28.88,0,1,1,28.88-28.87A28.9,28.9,0,0,1,130.45,187.31Zm0-41.75a12.88,12.88,0,1,0,12.88,12.88A12.9,12.9,0,0,0,130.45,145.56Z"/><polygon class="cls-2" points="235.01 447.08 219.01 447.08 219.01 241.58 194.98 318.42 182.3 318.42 161.05 251.9 161.05 447.08 145.05 447.08 145.04 195.12 159.71 195.12 188.54 285.39 220.32 183.81 235.01 183.81 235.01 447.08"/><polygon class="cls-2" points="115.86 447.08 99.86 447.08 99.86 250.56 79.11 313.64 63.91 308.64 101.26 195.12 115.87 195.12 115.86 447.08"/><path class="cls-2" d="M369.54,187.31a28.88,28.88,0,1,1,28.88-28.87A28.9,28.9,0,0,1,369.54,187.31Zm0-41.75a12.88,12.88,0,1,0,12.88,12.88A12.89,12.89,0,0,0,369.54,145.56Z"/><polygon class="cls-2" points="384.14 447.08 384.13 195.12 398.74 195.12 436.09 308.64 420.89 313.64 400.14 250.56 400.14 447.08 384.14 447.08"/><polygon class="cls-2" points="354.95 447.08 338.95 447.08 338.95 250.74 316.78 318.42 304.14 318.42 280.19 241.68 280.2 447.08 264.2 447.08 264.19 183.81 278.89 183.81 310.68 285.65 340.34 195.12 354.95 195.12 354.95 447.08"/></svg>