<svg id="Icons" xmlns="http://www.w3.org/2000/svg" viewBox="0 0 500 500"><defs><style>.cls-1{fill:#011e41;}.cls-2{fill:#f5333f;}</style></defs><path class="cls-1" d="M200.32,459.41,118.93,342.74l4.35-4.73a28.24,28.24,0,0,1,40.11-1.45l36.82,34.61-11,11.66-36.82-34.61a12.29,12.29,0,0,0-12.09-2.75l68.15,97.68,44.41-1.37a26.91,26.91,0,0,0,25.24-19.88l35.37-129,.19-.45a.8.8,0,0,0,0-.66.82.82,0,0,0-.46-.47.87.87,0,0,0-.67,0,.82.82,0,0,0-.46.47L312,292l-24.1,53.34-7.49-3.87a62.2,62.2,0,0,0-8-3.53l-6-2.2,9.82-73.2a2.33,2.33,0,0,0-.44-1.77,2.39,2.39,0,0,0-4.28,1.06L260.59,334l-7.65-.85c-2.23-.25-8.5-.54-9.65-.5l-7.88.24-4-87.91a2.32,2.32,0,0,0-.75-1.66,2.28,2.28,0,0,0-1.7-.64,2.32,2.32,0,0,0-1.67.75,2.29,2.29,0,0,0-.64,1.7v.16l1,89.2-6.06,1.57a47.39,47.39,0,0,0-8.32,2.82l-8.66,3.66-17.39-71.27a2.31,2.31,0,0,0-1.07-1.45,2.34,2.34,0,0,0-1.81-.28,2.37,2.37,0,0,0-1.47,1.08,2.35,2.35,0,0,0-.27,1.81l.08.36,15,76.07L181.9,352,167,276.06a18.39,18.39,0,0,1,35.76-8.58l8.52,35-.63-56.88a18.39,18.39,0,0,1,36.76-1.12L249.83,298l5.79-38.54A18.38,18.38,0,0,1,292,264.84l-6.2,46.3,11.57-25.62A16.87,16.87,0,0,1,328.7,298L293.57,426.13a42.83,42.83,0,0,1-40.17,31.64Z"/><path class="cls-1" d="M309.38,263.89l-26.19-35.77a12.18,12.18,0,0,0-8.07-4.94,12.37,12.37,0,0,0-2.91-.1l5.26,10.42-14.29,7.2L251,216.61l5.41-4a28.25,28.25,0,0,1,39.68,6.09l26.17,35.74Z"/><path class="cls-1" d="M368.68,355.17a43.49,43.49,0,0,1-6.88-.55l-35.76-6,2.64-15.78,35.7,6A26.89,26.89,0,0,0,392.83,324l58.94-120.12.27-.41a.88.88,0,0,0,.12-.65.87.87,0,0,0-1.57-.3l-.16.23-33.67,47.88-6.63-5.2a60.07,60.07,0,0,0-7.21-5l-5.52-3.3,23.36-70.06a2.28,2.28,0,0,0-.1-1.82,2.38,2.38,0,0,0-4.4.25l-24.19,68.87-7.35-2.27c-2.16-.67-8.24-2.12-9.39-2.3l-7.78-1.24,12.51-87.1a2.38,2.38,0,0,0-3.76-2.31,2.35,2.35,0,0,0-.95,1.56l0,.15-15.75,87.8-6.24.41a46.48,46.48,0,0,0-8.71,1.21l-9.19,2L331.72,159a2.34,2.34,0,0,0-.79-1.63,2.24,2.24,0,0,0-1.72-.61,2.34,2.34,0,0,0-1.65.78,2.38,2.38,0,0,0-.61,1.73v.37l.45,77.53-16,.09L311,159.94a18.39,18.39,0,0,1,36.74-1.73l1.82,35.94,10-56A18.38,18.38,0,0,1,395.87,144L388.25,197l12.91-36.77a18.39,18.39,0,0,1,34.73,12.1l-14.78,44.31,16.17-23a16.86,16.86,0,0,1,28.45,18.1L407.2,331.08A42.8,42.8,0,0,1,368.68,355.17Z"/><path class="cls-1" d="M114.58,335.58,31.82,236.83l4.76-5.17a28.23,28.23,0,0,1,40.12-1.45l36.82,34.6-11,11.66L65.74,241.86a12.22,12.22,0,0,0-11.31-3l72.41,86.4Z"/><path class="cls-1" d="M95.21,245.62,80.27,169.71A18.38,18.38,0,0,1,116,161.13l8.53,35-.63-56.88a18.38,18.38,0,0,1,36.75-1.11l2.46,53.56,5.8-38.55a18.38,18.38,0,0,1,36.37,5.39l-6.21,46.29,11.57-25.62A16.87,16.87,0,0,1,242,191.61l-8.83,32.21-15.43-4.23,9.06-33.08.19-.46a.86.86,0,0,0-1.13-1.12.82.82,0,0,0-.47.46l-.11.26L201.2,239l-7.5-3.87a59.45,59.45,0,0,0-8-3.53l-6-2.21,9.82-73.19a2.39,2.39,0,1,0-4.72-.71L173.9,227.66l-7.65-.85c-2.24-.24-8.5-.53-9.66-.5l-7.87.25-4-87.91a2.39,2.39,0,0,0-2.46-2.31,2.39,2.39,0,0,0-2.31,2.46V139l1,89.19-6.05,1.58a46.16,46.16,0,0,0-8.33,2.82l-8.66,3.66-17.38-71.27a2.39,2.39,0,0,0-4.63,1.15l.08.37,15,76.07Z"/><path class="cls-2" d="M366.39,96.5a186.3,186.3,0,0,0-230.13,0l-9.9-12.57a202.29,202.29,0,0,1,249.92,0Z"/></svg>